# xmcd
#
# Track frame offsets:
#	150
#	10605
#	22079
#	36573
#	51777
#	68101
#	82118
#	93572
#	102502
#	122915
#	140833
#	157685
#	171232
#	184790
#	197576
#	209643
#
# Disc length: 2963 seconds
#
# Revision: 0
# Processed by: cddbd v1.5.2PL0 Copyright (c) Steve Scherf et al.
# Submitted via: audiograbber 1.83.01
#
DISCID=e80b9110
DTITLE=Various Artist - Best Country  Platte 3
DYEAR=1989
DGENRE=Country
TTITLE0=Emmylou Harris - Mr. Sandman
TTITLE1=Charlie Rich - The Most Beautiful Girl
TTITLE2=Merle Haggard - If We´re Not Back In Love By Monday 
TTITLE3=John Conlee - As Long As I´m Rocking With You
TTITLE4=Reba McEntire - Only In My Mind
TTITLE5=Glen Campbell - The Hand That Rocks The Cradle
TTITLE6=Freddy Fender - Before The Next Teardrop Falls
TTITLE7=Crystal Gayle - Sparkling Look Of Love
TTITLE8=Steve Earle - Copperhead Road
TTITLE9=Nanci Griffith - Lone Star State Of Mind
TTITLE10=Steve Wariner - Small Town Girl
TTITLE11=Nicolette Larsen - Only Love Will Make It Right
TTITLE12=Lee Greenwood - Hearts Aren´t Made To Break
TTITLE13=George Strait - It Ain´t Cool To Be Crazy About You
TTITLE14=Tammy Wynette - Stand By Your Man
TTITLE15=Tommy Overstreet - Send Me No Roses
EXTD=
EXTT0=
EXTT1=
EXTT2=
EXTT3=
EXTT4=
EXTT5=
EXTT6=
EXTT7=
EXTT8=
EXTT9=
EXTT10=
EXTT11=
EXTT12=
EXTT13=
EXTT14=
EXTT15=
PLAYORDER=
